<svg width="110" height="110" viewBox="0 0 110 110" fill="none" xmlns="http://www.w3.org/2000/svg">
<path d="M110.001 71.2617L62.2695 93.1092L64.1762 59.166L110.001 71.2617Z" fill="url(#paint0_linear_1284_4326)"/>
<path d="M18.1797 7V87.31L76.3012 76.1283V19.4193L18.1797 7Z" fill="url(#paint1_linear_1284_4326)"/>
<path d="M63.0785 78.6677L62.2695 93.1029L76.3025 76.127L63.0785 78.6677Z" fill="url(#paint2_linear_1284_4326)"/>
<path fill-rule="evenodd" clip-rule="evenodd" d="M41.2466 24.5333L42.9477 23.7024L41.7932 21.8701L40.0265 22.7272L41.2466 24.5333ZM51.305 36.8269L44.4306 26.0606L42.8039 26.8478L41.2471 24.5388L39.3492 25.4615L50.0193 42.0789H53.732L57.121 31.4482L55.7042 30.7135L56.3208 29.0867L54.7771 28.2996L51.305 36.8269ZM55.5334 46.7213L61.6556 50.2197L62.1804 48.6148L63.9296 49.5506L63.3611 51.2124L65.1103 52.2094L65.9105 49.8742L64.1613 48.9297L64.5374 47.8408L58.975 44.8497L64.896 39.9825L63.055 37.4768L55.2317 43.2229L55.5334 46.7213ZM61.0144 62.2711L59.4095 63.3424L53.4448 54.3997L48.1272 70.3611L47.3707 72.6832L45.3197 72.3552L43.1333 71.9572L44.9349 66.9808L45.241 66.163L46.1375 63.7448L51.4201 49.5063H54.4812L60.8045 59.0875L59.4708 59.984L61.0144 62.2711ZM40.4908 48.6398L41.9645 50.5071L41.9514 50.5114L39.4836 52.3829L37.963 50.504L32.335 54.654L33.9311 56.6699L30.6601 59.1494L29.029 57.0854L26.4883 58.9526L28.15 61.056L30.6601 59.1494L32.1163 61.0036L38.9163 55.7953L37.4864 53.9018L39.4731 52.3933L40.9325 54.246L48.9045 48.1457L48.4191 44.4155L33.1136 36.0368L32.0956 37.6883L32.0903 37.6855L32.0894 37.687L29.6414 36.4042L30.6691 34.6987L28.0759 33.2993L26.8209 35.4071L28.6706 36.3867L27.3587 38.5294L28.2727 38.9667L30.6122 40.095L32.0894 37.687L32.0947 37.6898L32.0956 37.6883L34.2987 38.8487L32.86 41.1838L43.6 46.3702L40.4908 48.6398ZM30.2119 49.353C29.9336 49.539 29.6064 49.6382 29.2716 49.6382C28.8228 49.6382 28.3923 49.4599 28.075 49.1426C27.7576 48.8252 27.5793 48.3947 27.5793 47.9459C27.5793 47.6112 27.6785 47.284 27.8645 47.0057C28.0505 46.7274 28.3148 46.5105 28.624 46.3824C28.9332 46.2543 29.2735 46.2208 29.6018 46.2861C29.9301 46.3514 30.2316 46.5125 30.4683 46.7492C30.705 46.9859 30.8662 47.2874 30.9315 47.6157C30.9968 47.944 30.9633 48.2843 30.8352 48.5935C30.7071 48.9028 30.4902 49.1671 30.2119 49.353ZM54.3062 65.3312C54.5486 65.332 54.7857 65.2609 54.9877 65.1269C55.1896 64.9929 55.3472 64.802 55.4406 64.5783C55.5339 64.3547 55.5588 64.1083 55.512 63.8705C55.4653 63.6327 55.349 63.4141 55.178 63.2425C55.0069 63.0708 54.7887 62.9537 54.5511 62.9061C54.3135 62.8585 54.067 62.8825 53.8431 62.9751C53.6191 63.0676 53.4276 63.2245 53.2928 63.426C53.1581 63.6275 53.0862 63.8644 53.0862 64.1067C53.0856 64.2673 53.1167 64.4264 53.1778 64.575C53.2388 64.7235 53.3286 64.8585 53.442 64.9723C53.5553 65.086 53.69 65.1763 53.8383 65.2379C53.9866 65.2995 54.1456 65.3312 54.3062 65.3312ZM65.1266 45.2247C64.9655 45.3324 64.7761 45.3898 64.5824 45.3898C64.3226 45.3898 64.0734 45.2866 63.8897 45.1029C63.706 44.9192 63.6028 44.67 63.6028 44.4103C63.6028 44.2165 63.6603 44.0271 63.7679 43.866C63.8755 43.705 64.0285 43.5794 64.2075 43.5053C64.3865 43.4311 64.5835 43.4117 64.7735 43.4495C64.9635 43.4873 65.138 43.5806 65.275 43.7176C65.412 43.8546 65.5053 44.0291 65.5431 44.2192C65.5809 44.4092 65.5615 44.6061 65.4874 44.7851C65.4132 44.9641 65.2877 45.1171 65.1266 45.2247ZM50.3724 29.0891C50.6597 29.09 50.9408 29.0056 51.1802 28.8466C51.4195 28.6876 51.6063 28.4611 51.7168 28.1959C51.8274 27.9307 51.8567 27.6387 51.8012 27.3568C51.7457 27.0748 51.6078 26.8157 51.4049 26.6123C51.202 26.4088 50.9433 26.2701 50.6616 26.2137C50.3799 26.1573 50.0877 26.1858 49.8222 26.2956C49.5566 26.4053 49.3296 26.5914 49.1699 26.8303C49.0102 27.0691 48.9249 27.35 48.9249 27.6373C48.9249 28.0216 49.0773 28.3902 49.3486 28.6624C49.6199 28.9345 49.9881 29.088 50.3724 29.0891ZM59.404 63.3446L58.2451 64.1274L59.2946 65.7192L60.4579 64.9495L59.404 63.3446ZM67.9051 49.6251L66.2959 48.7549L66.8031 47.3162L68.4037 48.1776L67.9051 49.6251ZM57.6524 29.7899L56.3186 29.0946L56.9308 27.4022L58.199 28.0625L57.6524 29.7899Z" fill="white"/>
<path opacity="0.8" fill-rule="evenodd" clip-rule="evenodd" d="M45.7547 89.9356L45.3524 95.5986V95.603L46.9398 95.2925L47.3421 89.6295L45.7547 89.9356ZM45.9121 87.7753L45.8115 89.1441V89.1528L47.3989 88.838L47.4995 87.4648L45.9121 87.7753ZM43.4643 96.0811C43.1597 96.1554 42.8418 96.1554 42.5372 96.0811C42.4192 96.0442 42.3127 95.9772 42.2284 95.8867C42.144 95.7963 42.0847 95.6854 42.0562 95.565C41.963 95.1654 41.9393 94.7527 41.9862 94.345L42.1524 92.0098L41.5926 92.1454L41.6932 90.7241L42.253 90.6148L42.3535 89.2067L43.9409 88.9006L43.8404 90.3087L45.0648 90.0682L44.9642 91.485L43.7354 91.7256L43.5998 93.6278C43.5846 93.8243 43.5846 94.0217 43.5998 94.2182C43.5998 94.271 43.6116 94.3231 43.6343 94.3708C43.657 94.4184 43.69 94.4604 43.731 94.4937C43.837 94.5414 43.9566 94.5491 44.0678 94.5155C44.1348 94.5041 44.2007 94.4865 44.2645 94.463C44.3194 94.4448 44.3726 94.4327 44.4271 94.4204C44.4639 94.4121 44.5013 94.4037 44.54 94.3931L44.7543 94.3362L44.6975 95.6919C44.5225 95.7618 44.317 95.8405 44.0721 95.9236C43.8272 96.0067 43.6348 96.0636 43.473 96.0986L43.4643 96.0811ZM29.1616 98.7711L29.717 91.114L31.6849 90.7291L33.4647 95.1765L33.6396 95.1415L33.9894 90.2743L35.6249 89.9551L35.0739 97.6122L33.1279 97.997L31.335 93.4579L31.1601 93.4929L30.8015 98.4693L29.1616 98.7886V98.7711ZM25.3745 99.5005L25.3735 99.5138V99.5007L25.3745 99.5005ZM25.3745 99.5005L25.7802 93.8289L27.3676 93.5185L27.3195 94.1613C27.458 94.0236 27.604 93.8937 27.7568 93.7721C27.9317 93.6322 28.1154 93.4966 28.3078 93.3698C28.4793 93.2555 28.6644 93.1629 28.8588 93.0943L28.7407 94.7429C28.5555 94.8055 28.3756 94.883 28.2029 94.9747C28.022 95.0651 27.8527 95.171 27.6878 95.2742L27.6562 95.2939C27.4813 95.4032 27.3326 95.5082 27.2189 95.5956L26.9609 99.1902L25.3745 99.5005ZM22.0765 100.291C21.6204 100.413 21.1386 100.399 20.6902 100.252C20.5222 100.178 20.3733 100.067 20.255 99.9267C20.1367 99.7864 20.0522 99.6209 20.008 99.4428C19.8835 98.9279 19.848 98.3954 19.9031 97.8685C19.9325 97.2667 20.0672 96.6747 20.301 96.1193C20.4922 95.6666 20.7927 95.2685 21.1756 94.9605C21.5838 94.654 22.0589 94.4487 22.5619 94.3614C23.3665 94.204 23.9525 94.2958 24.3111 94.6325C24.6696 94.9692 24.8402 95.599 24.7746 96.5042L24.6259 97.4137L21.4774 98.0347C21.4387 98.2984 21.4928 98.5674 21.6304 98.7956C21.7529 98.9487 21.9803 98.988 22.3126 98.9268L23.0298 98.7694L23.83 98.5682L24.5078 98.3933L24.451 99.5565C24.2717 99.6265 24.0399 99.7139 23.7688 99.8101C23.4977 99.9063 23.2134 99.9938 22.9205 100.081C22.6275 100.169 22.352 100.239 22.0852 100.291H22.0765ZM21.5255 96.9896L23.2222 96.6572C23.2811 96.3512 23.2365 96.0343 23.0954 95.7564C23.017 95.6761 22.9172 95.6201 22.8078 95.5953C22.6984 95.5705 22.5841 95.5778 22.4788 95.6164C22.2131 95.6616 21.9742 95.8053 21.8097 96.0188C21.6301 96.3112 21.5319 96.6464 21.5255 96.9896ZM14.5905 96.0394L14.0133 104.046H14.0439L15.6313 103.731L15.8018 101.388H16.2391C16.4168 101.389 16.5942 101.371 16.7682 101.335C17.2568 101.253 17.7194 101.059 18.1195 100.767C18.4774 100.474 18.7494 100.09 18.9066 99.6559C19.1058 99.0926 19.2221 98.5034 19.2521 97.9067C19.3177 96.9271 19.2127 96.2274 18.9504 95.7901C18.688 95.3528 18.1982 95.2129 17.4942 95.3528C17.3224 95.3866 17.1561 95.444 17 95.5234C16.8341 95.598 16.6759 95.6888 16.5277 95.7945C16.379 95.8995 16.2566 95.9913 16.156 96.0788V95.7333L14.5905 96.0394ZM17.1618 99.669C17.0005 99.8275 16.7945 99.9329 16.5715 99.9707L16.5671 99.997C16.4342 100.023 16.2999 100.041 16.1648 100.049H15.863L16.0598 97.3032C16.1298 97.2507 16.2172 97.1939 16.3178 97.137C16.4184 97.0802 16.5277 97.0277 16.6327 96.9796C16.7286 96.9383 16.8281 96.906 16.93 96.8834C17.0366 96.8496 17.1511 96.8505 17.2572 96.8858C17.3633 96.9212 17.4554 96.9892 17.5204 97.0802C17.6718 97.4312 17.7159 97.8192 17.6472 98.1953C17.6308 98.4918 17.5794 98.7854 17.4942 99.0699C17.4323 99.293 17.3184 99.4984 17.1618 99.669ZM2 104.089L2.55537 96.4363L4.19087 96.1127L3.98534 99.2263L6.43422 98.7409L6.65724 95.6361L8.29711 95.3169L7.74611 102.974L6.10624 103.293L6.32489 100.232L3.87601 100.709L3.65736 103.77L2.01749 104.089H2ZM10.0078 104.824L10.8387 102.353L9.61861 102.594L8.86646 97.1581L10.5238 96.8302L11.0311 100.884L11.2672 100.836L12.3736 96.4628L13.961 96.1523L11.7133 104.483L10.0122 104.815L10.0078 104.824ZM36.9588 97.3037C37.1744 97.3395 37.3955 97.3223 37.6029 97.2536C37.8222 97.2074 38.0372 97.143 38.2458 97.0612C38.45 96.9796 38.6487 96.8847 38.8405 96.7769C38.9083 96.7352 38.9734 96.6962 39.0344 96.6597L39.035 96.6593L39.0355 96.659L39.0359 96.6588L39.0362 96.6586C39.1277 96.6038 39.2098 96.5546 39.2778 96.5102C39.3525 96.5869 39.4459 96.6427 39.5489 96.672C39.6887 96.723 39.8383 96.741 39.9862 96.7244C40.134 96.716 40.2805 96.6925 40.4235 96.6545C40.5845 96.62 40.732 96.5788 40.8719 96.5397L40.9308 96.5233L41.0445 95.3644C40.957 95.3621 40.8709 95.3428 40.7908 95.3076C40.7549 95.2917 40.7236 95.2668 40.6999 95.2355C40.6762 95.2041 40.6608 95.1672 40.6553 95.1283L40.8346 92.6488C40.8884 92.276 40.8306 91.8956 40.6684 91.5556C40.5938 91.437 40.494 91.3364 40.3761 91.2608C40.2582 91.1853 40.1251 91.1366 39.9862 91.1183C39.6086 91.0685 39.2251 91.0863 38.8536 91.1707C38.6 91.2232 38.3376 91.2932 38.049 91.3806L37.2269 91.6649C36.982 91.7655 36.7371 91.866 36.5447 91.9535L36.5141 93.1298C36.65 93.0867 36.811 93.0411 36.9877 92.9911L37.1613 92.9418C37.4061 92.8718 37.6642 92.8019 37.9178 92.7363C38.1714 92.6707 38.4032 92.6182 38.6087 92.5788C38.7722 92.5268 38.9496 92.5409 39.1029 92.6182C39.16 92.6741 39.2023 92.7433 39.226 92.8197C39.2497 92.896 39.2539 92.9771 39.2384 93.0555V93.3441L38.0665 93.6765C37.704 93.76 37.354 93.8909 37.0257 94.0657C36.7443 94.2138 36.5073 94.4342 36.3391 94.7041C36.1573 95.0264 36.0568 95.3881 36.0461 95.758C36.0012 95.9833 36.0065 96.2157 36.0616 96.4387C36.1168 96.6617 36.2205 96.8697 36.3654 97.048C36.5395 97.1801 36.7431 97.2679 36.9588 97.3037ZM38.4469 95.8236C38.3313 95.8741 38.2113 95.9136 38.0883 95.9417V95.9461C38.025 95.9667 37.957 95.9686 37.8926 95.9516C37.8282 95.9345 37.7702 95.8992 37.7254 95.8498C37.645 95.7192 37.614 95.5641 37.6379 95.4125C37.6468 95.2384 37.7043 95.0702 37.8041 94.9271C37.9196 94.7933 38.0715 94.6961 38.2414 94.6473L39.1597 94.3805L39.081 95.4956C38.9907 95.5532 38.8972 95.6058 38.8011 95.6531C38.6865 95.7168 38.5682 95.7738 38.4469 95.8236ZM50.2734 94.7705C49.8072 94.8904 49.317 94.8798 48.8565 94.7399C48.6789 94.6713 48.5199 94.5619 48.3923 94.4207C48.2647 94.2794 48.1721 94.1101 48.1218 93.9265C47.9744 93.3857 47.9299 92.822 47.9907 92.2647C48.0202 91.6713 48.1503 91.0873 48.3755 90.5374C48.5633 90.0961 48.8651 89.7128 49.2501 89.4267C49.6845 89.1358 50.1743 88.9378 50.6888 88.8451C51.149 88.7269 51.6327 88.736 52.0881 88.8713C52.2652 88.936 52.4253 89.0401 52.5564 89.1757C52.6874 89.3113 52.786 89.4749 52.8447 89.6541C53.0002 90.1814 53.0492 90.7344 52.989 91.2808C52.9596 91.8805 52.8326 92.4713 52.6129 93.03C52.4319 93.4813 52.1292 93.8734 51.7383 94.1626C51.2982 94.4664 50.7965 94.6695 50.269 94.7574L50.2734 94.7705ZM50.3739 93.3536C50.5919 93.3208 50.7956 93.225 50.9599 93.0781C51.1093 92.9235 51.211 92.7292 51.2529 92.5184C51.3238 92.2153 51.3677 91.9065 51.3841 91.5957C51.4207 91.3053 51.4207 91.0115 51.3841 90.7211C51.3801 90.6342 51.3558 90.5494 51.3133 90.4735C51.2708 90.3976 51.2112 90.3326 51.1392 90.2838C50.972 90.2065 50.7824 90.1925 50.6057 90.2444C50.4033 90.2777 50.2133 90.3636 50.0547 90.4937C49.9017 90.6384 49.7925 90.8233 49.7398 91.0272C49.6577 91.3256 49.6078 91.632 49.5912 91.9411C49.5615 92.2392 49.5615 92.5395 49.5912 92.8376C49.5967 92.9223 49.6198 93.0049 49.6589 93.0802C49.6981 93.1554 49.7524 93.2217 49.8186 93.2749C49.9895 93.3606 50.1872 93.3763 50.3696 93.3186L50.3739 93.3536ZM53.6312 93.9539L53.6302 93.9672V93.9541L53.6312 93.9539ZM53.6312 93.9539L55.2176 93.648L55.5106 89.5942C55.5978 89.5351 55.6884 89.4811 55.7817 89.4324C55.8911 89.3755 56.0004 89.3231 56.1185 89.275C56.2307 89.232 56.3462 89.1984 56.4639 89.1744C56.5367 89.151 56.6139 89.1443 56.6896 89.1549C56.7653 89.1655 56.8377 89.1931 56.9012 89.2356C56.9606 89.2917 57.0076 89.3595 57.0393 89.4348C57.0709 89.5102 57.0864 89.5912 57.0849 89.6729C57.116 89.9534 57.116 90.2364 57.0849 90.5169L56.8837 93.3287L58.4711 93.0139L58.681 90.1058C58.7351 89.5563 58.7175 89.0021 58.6286 88.4572C58.6101 88.2931 58.5539 88.1354 58.4643 87.9966C58.3748 87.8578 58.2544 87.7415 58.1125 87.657C57.7519 87.5187 57.3563 87.5003 56.9843 87.6045C56.8147 87.641 56.6502 87.6983 56.4945 87.775C56.3251 87.8566 56.1602 87.9471 56.0004 88.0462C55.8577 88.1372 55.7205 88.2365 55.5893 88.3435L55.6112 87.9937L54.0369 88.3042L53.6312 93.9539Z" fill="white"/>
<defs>
<linearGradient id="paint0_linear_1284_4326" x1="55.5701" y1="71.0693" x2="64.8383" y2="108.021" gradientUnits="userSpaceOnUse">
<stop stop-color="#2889A6"/>
<stop offset="1" stop-color="#0E4257"/>
</linearGradient>
<linearGradient id="paint1_linear_1284_4326" x1="-21.6146" y1="13.1222" x2="108.701" y2="162.241" gradientUnits="userSpaceOnUse">
<stop stop-color="#2889A6"/>
<stop offset="0.557292" stop-color="#0E4257"/>
</linearGradient>
<linearGradient id="paint2_linear_1284_4326" x1="52.6615" y1="77.4211" x2="79.4907" y2="112.488" gradientUnits="userSpaceOnUse">
<stop stop-color="#2889A6"/>
<stop offset="0.557292" stop-color="#0E4257"/>
</linearGradient>
</defs>
</svg>
