<?xml version="1.0" encoding="UTF-8"?>
<svg width="24px" height="24px" viewBox="0 0 24 24" version="1.1" xmlns="http://www.w3.org/2000/svg" xmlns:xlink="http://www.w3.org/1999/xlink">
    <title>page54_failedtoload_icon</title>
    <g id="切图" stroke="none" stroke-width="1" fill="none" fill-rule="evenodd">
        <g id="Apple-TV" transform="translate(-201.000000, -1455.000000)" fill="#C5C5C5">
            <g id="编组-2备份-3" transform="translate(201.000000, 1455.000000)">
                <g id="编组-6" transform="translate(1.000000, 1.000000)">
                    <path d="M11,0 C17.0751322,0 22,4.92486775 22,11 C22,17.0751322 17.0751322,22 11,22 C4.92486775,22 0,17.0751322 0,11 C0,4.92486775 4.92486775,0 11,0 Z M11,1.375 C5.68425928,1.375 1.375,5.68425928 1.375,11 C1.375,16.3157407 5.68425928,20.625 11,20.625 C16.3157407,20.625 20.625,16.3157407 20.625,11 C20.625,5.68425928 16.3157407,1.375 11,1.375 Z M10.9978602,12.3106145 C12.4648602,12.3106145 13.7738602,13.2494162 14.2558602,14.645014 C14.4008602,15.0655084 14.1798602,15.5253296 13.7628602,15.6725531 C13.3438602,15.8187682 12.8888602,15.5949078 12.7438602,15.1754218 C12.4858602,14.4272039 11.7848602,13.9240223 10.9978602,13.9240223 C10.2148602,13.9240223 9.51486019,14.4241788 9.25386019,15.1673547 C9.10686019,15.5868408 8.64886019,15.8066676 8.23386019,15.6584358 C7.81686019,15.5112123 7.59886019,15.0503827 7.74586019,14.6298883 C8.23086019,13.2423575 9.53786019,12.3106145 10.9978602,12.3106145 Z M7.15,8.07541899 C7.78512746,8.07541899 8.3,8.59460611 8.3,9.23505587 C8.3,9.87550563 7.78512746,10.3946927 7.15,10.3946927 C6.51487254,10.3946927 6,9.87550563 6,9.23505587 C6,8.59460611 6.51487254,8.07541899 7.15,8.07541899 Z M14.85,8.07541899 C15.4851275,8.07541899 16,8.59460611 16,9.23505587 C16,9.87550563 15.4851275,10.3946927 14.85,10.3946927 C14.2148725,10.3946927 13.7,9.87550563 13.7,9.23505587 C13.7,8.59460611 14.2148725,8.07541899 14.85,8.07541899 Z" id="形状结合"></path>
                </g>
            </g>
        </g>
    </g>
</svg>