<?xml version="1.0" encoding="UTF-8"?>
<svg width="24px" height="24px" viewBox="0 0 24 24" version="1.1" xmlns="http://www.w3.org/2000/svg" xmlns:xlink="http://www.w3.org/1999/xlink">
    <title>page54_preview_spin_right</title>
    <g id="切图" stroke="none" stroke-width="1" fill="none" fill-rule="evenodd">
        <g id="Apple-TV" transform="translate(-562.000000, -1559.000000)" fill="#FFFFFF">
            <g id="编组" transform="translate(426.000000, 1559.000000)">
                <g id="向右旋转" transform="translate(136.000000, 0.000000)">
                    <path d="M18,7 C18.5522847,7 19,7.44771525 19,8 L19,20 C19,20.5522847 18.5522847,21 18,21 L2,21 C1.44771525,21 1,20.5522847 1,20 L1,8 C1,7.44771525 1.44771525,7 2,7 L18,7 Z M17.5,8.5 L2.5,8.5 L2.5,19.5 L17.5,19.5 L17.5,8.5 Z" id="形状结合"></path>
                    <path d="M23.0132904,2 C23.4272904,2 23.7632904,2.336 23.7632904,2.75 C23.7632904,3.164 23.4272904,3.5 23.0132904,3.5 C21.0077449,3.5 19.3216524,4.89724044 18.8775702,6.76916401 L20.1292605,6.76977539 C20.4054029,6.76977539 20.6292605,6.99363302 20.6292605,7.26977539 C20.6292605,7.41656353 20.5647584,7.55593673 20.4528583,7.65093737 L18.1137402,9.63679523 C17.9032256,9.81549039 17.5877069,9.78971909 17.4089961,9.57921779 C17.3497872,9.50947637 17.3108485,9.42482644 17.2964201,9.3344861 C17.2791407,9.22629413 17.2681992,9.10937681 17.2635956,8.98373413 C17.2454681,8.48899333 17.2454681,7.98151652 17.2635956,7.46130371 L17.2708425,7.45353706 C17.4257056,4.42070298 19.9427122,2 23.0132904,2 Z" id="形状结合" transform="translate(20.506645, 5.877813) scale(-1, 1) translate(-20.506645, -5.877813) "></path>
                </g>
            </g>
        </g>
    </g>
</svg>