<?xml version="1.0" encoding="UTF-8"?>
<svg width="20px" height="20px" viewBox="0 0 20 20" version="1.1" xmlns="http://www.w3.org/2000/svg" xmlns:xlink="http://www.w3.org/1999/xlink">
    <title>page51_card_add</title>
    <g id="切图" stroke="none" stroke-width="1" fill="none" fill-rule="evenodd">
        <g id="Apple-TV" transform="translate(-289.000000, -1310.000000)" fill="#999999">
            <g id="写总结" transform="translate(289.000000, 1310.000000)">
                <path d="M10.065,19.75 L2.889,19.75 C1.985,19.75 1.25,18.965 1.25,18 L1.25,2 C1.25,1.035 1.985,0.25 2.889,0.25 L17.111,0.25 C18.014,0.25 18.75,1.035 18.75,2 L18.75,11 C18.75,11.414 18.414,11.75 18,11.75 C17.586,11.75 17.25,11.414 17.25,11 L17.25,2 C17.25,1.845 17.16,1.75 17.111,1.75 L2.889,1.75 C2.84,1.75 2.75,1.845 2.75,2 L2.75,18 C2.75,18.155 2.84,18.25 2.889,18.25 L10.065,18.25 C10.479,18.25 10.815,18.586 10.815,19 C10.815,19.414 10.479,19.75 10.065,19.75" id="Fill-1"></path>
                <rect id="矩形" x="5.48011289" y="5.5" width="9" height="1.5" rx="0.75"></rect>
                <path d="M14.9801129,11.75 C15.3943265,11.75 15.7301129,12.0857864 15.7301129,12.5 L15.7301129,14.999 L18.2301129,15 C18.6443265,15 18.9801129,15.3357864 18.9801129,15.75 C18.9801129,16.1642136 18.6443265,16.5 18.2301129,16.5 L15.7301129,16.499 L15.7301129,19 C15.7301129,19.4142136 15.3943265,19.75 14.9801129,19.75 C14.5658993,19.75 14.2301129,19.4142136 14.2301129,19 L14.2301129,16.499 L11.7301129,16.5 C11.3158993,16.5 10.9801129,16.1642136 10.9801129,15.75 C10.9801129,15.3357864 11.3158993,15 11.7301129,15 L14.2301129,14.999 L14.2301129,12.5 C14.2301129,12.0857864 14.5658993,11.75 14.9801129,11.75 Z" id="形状结合"></path>
                <rect id="矩形备份" x="5.48011289" y="9.5" width="5" height="1.5" rx="0.75"></rect>
            </g>
        </g>
    </g>
</svg>