<?xml version="1.0" encoding="UTF-8"?>
<svg width="20px" height="20px" viewBox="0 0 20 20" version="1.1" xmlns="http://www.w3.org/2000/svg" xmlns:xlink="http://www.w3.org/1999/xlink">
    <title>page51_card_details</title>
    <g id="切图" stroke="none" stroke-width="1" fill="none" fill-rule="evenodd">
        <g id="Apple-TV" transform="translate(-250.000000, -1310.000000)" fill="#999999">
            <g id="详情-2" transform="translate(250.000000, 1310.000000)">
                <g id="详情" transform="translate(0.000000, 0.000000)">
                    <rect id="矩形" x="4.75" y="14" width="11" height="1.5" rx="0.75"></rect>
                    <path d="M12.865,5.68434189e-14 C13.337,5.68434189e-14 13.796,0.195 14.124,0.535 L18.759,5.339 C19.076,5.667 19.25,6.099 19.25,6.554 L19.251112,6.57799414 C19.2576171,6.61770368 19.261,6.65845918 19.261,6.7 C19.261,6.74154082 19.2576171,6.78229632 19.251112,6.82200586 L19.25,17.75 C19.25,18.715 18.465,19.5 17.5,19.5 L3,19.5 C2.035,19.5 1.25,18.715 1.25,17.75 L1.25,1.75 C1.25,0.785 2.035,5.68434189e-14 3,5.68434189e-14 L12.865,5.68434189e-14 Z M11.749,1.5 L3,1.5 C2.862,1.5 2.75,1.612 2.75,1.75 L2.75,17.75 C2.75,17.888 2.862,18 3,18 L17.5,18 C17.638,18 17.75,17.888 17.75,17.75 L17.75,7.45 L12.5,7.45 C12.086,7.45 11.75,7.114 11.75,6.7 L11.749,1.5 Z M17.266,5.95 L13.249,1.787 L13.25,5.95 L17.266,5.95 Z" id="形状结合"></path>
                    <rect id="矩形备份" x="4.75" y="10" width="6" height="1.5" rx="0.75"></rect>
                </g>
            </g>
        </g>
    </g>
</svg>