<?xml version="1.0" encoding="UTF-8"?>
<svg width="40px" height="40px" viewBox="0 0 40 40" version="1.1" xmlns="http://www.w3.org/2000/svg" xmlns:xlink="http://www.w3.org/1999/xlink">
    <title>page54_preview_close</title>
    <g id="切图" stroke="none" stroke-width="1" fill="none" fill-rule="evenodd">
        <g id="Apple-TV" transform="translate(-241.000000, -1562.000000)" fill="#FFFFFF">
            <g id="关闭-2" transform="translate(241.000000, 1562.000000)">
                <g id="关闭" transform="translate(20.000000, 20.000000) rotate(-90.000000) translate(-20.000000, -20.000000) ">
                    <path d="M14.3756313,12.8964466 L20.0319712,18.553 L25.6893398,12.8964466 C26.0498238,12.5359626 26.6170548,12.5082331 27.0093461,12.813258 L27.1035534,12.8964466 C27.4940777,13.2869709 27.4940777,13.9201359 27.1035534,14.3106602 L27.1035534,14.3106602 L21.4459712,19.967 L27.1035534,25.6243687 C27.4940777,26.014893 27.4940777,26.6480579 27.1035534,27.0385822 C26.7130291,27.4291065 26.0798641,27.4291065 25.6893398,27.0385822 L20.0319712,21.381 L14.3756313,27.0385822 C14.0151474,27.3990662 13.4479163,27.4267957 13.0556251,27.1217708 L12.9614178,27.0385822 C12.5708935,26.6480579 12.5708935,26.014893 12.9614178,25.6243687 L12.9614178,25.6243687 L18.6179712,19.967 L12.9614178,14.3106602 C12.5708935,13.9201359 12.5708935,13.2869709 12.9614178,12.8964466 C13.3519421,12.5059223 13.985107,12.5059223 14.3756313,12.8964466 Z" id="形状结合"></path>
                </g>
            </g>
        </g>
    </g>
</svg>