<?xml version="1.0" encoding="UTF-8"?>
<svg width="40px" height="40px" viewBox="0 0 40 40" version="1.1" xmlns="http://www.w3.org/2000/svg" xmlns:xlink="http://www.w3.org/1999/xlink">
    <title>page54_preview_left</title>
    <g id="切图" stroke="none" stroke-width="1" fill="none" fill-rule="evenodd">
        <g id="Apple-TV" transform="translate(-317.000000, -1619.000000)" fill="#FFFFFF">
            <g id="右切换-2备份" transform="translate(317.000000, 1619.000000)">
                <g id="Group-52-Copy-9" transform="translate(20.000000, 20.000000) scale(-1, 1) rotate(-90.000000) translate(-20.000000, -20.000000) translate(8.333333, 8.333333)">
                    <path d="M4.04289322,7.62622655 C4.43341751,7.23570226 5.06658249,7.23570226 5.45710678,7.62622655 L5.45710678,7.62622655 L11.668,13.8373333 L17.8796958,7.62622655 C18.2702201,7.23570226 18.903385,7.23570226 19.2939093,7.62622655 C19.6844336,8.01675084 19.6844336,8.64991582 19.2939093,9.04044011 L12.4585438,15.8758057 C12.2420993,16.0922501 11.9511199,16.1887322 11.6682261,16.1652521 C11.3856826,16.1887322 11.0947032,16.0922501 10.8782588,15.8758057 L10.8782588,15.8758057 L4.04289322,9.04044011 C3.65236893,8.64991582 3.65236893,8.01675084 4.04289322,7.62622655 Z" id="形状结合"></path>
                </g>
            </g>
        </g>
    </g>
</svg>