<?xml version="1.0" encoding="UTF-8"?>
<svg width="24px" height="24px" viewBox="0 0 24 24" version="1.1" xmlns="http://www.w3.org/2000/svg" xmlns:xlink="http://www.w3.org/1999/xlink">
    <title>page54_preview_spin_left</title>
    <g id="切图" stroke="none" stroke-width="1" fill="none" fill-rule="evenodd">
        <g id="Apple-TV" transform="translate(-522.000000, -1559.000000)" fill="#FFFFFF">
            <g id="编组" transform="translate(426.000000, 1559.000000)">
                <g id="向左旋转" transform="translate(96.000000, 0.000000)">
                    <path d="M22,7 C22.5522847,7 23,7.44771525 23,8 L23,20 C23,20.5522847 22.5522847,21 22,21 L6,21 C5.44771525,21 5,20.5522847 5,20 L5,8 C5,7.44771525 5.44771525,7 6,7 L22,7 Z M21.5,8.5 L6.5,8.5 L6.5,19.5 L21.5,19.5 L21.5,8.5 Z" id="形状结合"></path>
                    <path d="M6.01348877,2 C6.42748877,2 6.76348877,2.336 6.76348877,2.75 C6.76348877,3.164 6.42748877,3.5 6.01348877,3.5 C4.00794329,3.5 2.32185078,4.89724044 1.87776857,6.76916401 L3.12945888,6.76977539 C3.40560125,6.76977539 3.62945888,6.99363302 3.62945888,7.26977539 C3.62945888,7.41656353 3.56495681,7.55593673 3.45305669,7.65093737 L1.11393859,9.63679523 C0.903423996,9.81549039 0.587905243,9.78971909 0.409194441,9.57921779 C0.349985571,9.50947637 0.311046817,9.42482644 0.296618478,9.3344861 C0.279339039,9.22629413 0.268397528,9.10937681 0.263793945,8.98373413 C0.245666504,8.48899333 0.245666504,7.98151652 0.263793945,7.46130371 L0.2710409,7.45353706 C0.425903991,4.42070298 2.94291057,2 6.01348877,2 Z" id="形状结合"></path>
                </g>
            </g>
        </g>
    </g>
</svg>