<?xml version="1.0" encoding="UTF-8"?>
<svg width="56px" height="52px" viewBox="0 0 56 52" version="1.1" xmlns="http://www.w3.org/2000/svg" xmlns:xlink="http://www.w3.org/1999/xlink">
    <title>page67_nodate_concise</title>
    <g id="切图" stroke="none" stroke-width="1" fill="none" fill-rule="evenodd">
        <g id="Apple-TV" transform="translate(-1425.000000, -1363.000000)">
            <g id="image" transform="translate(1425.000000, 1363.000000)">
                <path d="M4.616,7.9998 C4.056,7.9998 3.6,8.4568 3.6,9.0178 C3.6,9.5788 4.056,10.0348 4.616,10.0348 C5.176,10.0348 5.632,9.5788 5.632,9.0178 C5.632,8.4568 5.176,7.9998 4.616,7.9998 M4.616,12.0348 C2.953,12.0348 1.6,10.6818 1.6,9.0178 C1.6,7.3538 2.953,5.9998 4.616,5.9998 C6.28,5.9998 7.632,7.3538 7.632,9.0178 C7.632,10.6818 6.28,12.0348 4.616,12.0348" id="Fill-1" fill="#E8E8E8"></path>
                <path d="M51.4480169,41.0037042 C51.8622304,41.0037042 52.1980169,41.3394906 52.1980169,41.7537042 L52.198,43.1597042 L53.698,43.1602753 C54.1122136,43.1602753 54.448,43.4960618 54.448,43.9102753 C54.448,44.3244889 54.1122136,44.6602753 53.698,44.6602753 L52.198,44.6597042 L52.1980169,46.2537042 C52.1980169,46.6679177 51.8622304,47.0037042 51.4480169,47.0037042 C51.0338033,47.0037042 50.6980169,46.6679177 50.6980169,46.2537042 L50.698,44.6597042 L49.198,44.6602753 C48.7837864,44.6602753 48.448,44.3244889 48.448,43.9102753 C48.448,43.4960618 48.7837864,43.1602753 49.198,43.1602753 L50.698,43.1597042 L50.6980169,41.7537042 C50.6980169,41.3394906 51.0338033,41.0037042 51.4480169,41.0037042 Z" id="Combined-Shape" fill="#E8E8E8"></path>
                <path d="M3.94801686,32.2537042 C4.22415923,32.2537042 4.44801686,32.4775618 4.44801686,32.7537042 L4.448,34.1597042 L5.948,34.1602753 C6.22414237,34.1602753 6.448,34.3841329 6.448,34.6602753 C6.448,34.9364177 6.22414237,35.1602753 5.948,35.1602753 L4.448,35.1597042 L4.44801686,36.7537042 C4.44801686,37.0298465 4.22415923,37.2537042 3.94801686,37.2537042 C3.67187448,37.2537042 3.44801686,37.0298465 3.44801686,36.7537042 L3.448,35.1597042 L1.948,35.1602753 C1.67185763,35.1602753 1.448,34.9364177 1.448,34.6602753 C1.448,34.3841329 1.67185763,34.1602753 1.948,34.1602753 L3.448,34.1597042 L3.44801686,32.7537042 C3.44801686,32.4775618 3.67187448,32.2537042 3.94801686,32.2537042 Z" id="Combined-Shape" fill="#E8E8E8"></path>
                <circle id="椭圆形" fill="#E8E8E8" cx="52.25" cy="18.25" r="1.25"></circle>
                <path d="M23.4635,35.12125 C23.6955,35.12125 23.9255,35.16125 24.1475,35.24125 L33.8975,38.80925 L41.9995,33.99125 L41.9995,13.53425 L34.8665,17.12525 C34.3345,17.39025 33.7175,17.40825 33.1745,17.17425 L23.4995,13.00025 L13.9995,17.09925 L13.9995,37.76225 L22.9105,35.19925 C23.0925,35.14725 23.2785,35.12125 23.4635,35.12125" id="路径" fill="#FAFAFA" opacity="0.9"></path>
                <path d="M23.4635,35.12125 C23.6955,35.12125 23.9255,35.16125 24.1475,35.24125 L33.8975,38.80925 L41.9995,33.99125 L41.9995,13.53425 L34.8665,17.12525 C34.3345,17.39025 33.7175,17.40825 33.1745,17.17425 L23.4995,13.00025 L13.9995,17.09925 L13.9995,37.76225 L22.9105,35.19925 C23.0925,35.14725 23.2785,35.12125 23.4635,35.12125 M33.8995,40.81025 C33.6675,40.81025 33.4345,40.77025 33.2085,40.68725 L23.4625,37.12125 L13.9155,39.86725 C13.5305,39.98025 13.1245,39.93225 12.7735,39.73825 C12.4225,39.54425 12.1685,39.22525 12.0585,38.83925 C12.0195,38.70125 11.9995,38.56425 11.9995,38.42625 L11.9995,17.09925 C11.9995,16.30025 12.4735,15.57925 13.2075,15.26325 L22.7075,11.16425 C23.2105,10.94525 23.7895,10.94525 24.2925,11.16425 L33.9675,15.33825 L41.8265,11.38325 C42.1795,11.20425 42.5855,11.17125 42.9685,11.29825 C43.3495,11.42325 43.6595,11.69025 43.8395,12.05025 C43.9445,12.25525 43.9995,12.48825 43.9995,12.72325 L43.9995,33.99125 C43.9995,34.69225 43.6245,35.35225 43.0225,35.71025 L34.9185,40.52725 C34.6065,40.71525 34.2545,40.81025 33.8995,40.81025" id="Fill-1" fill="#D9D9D9" opacity="0.9"></path>
                <path d="M30.9502,30.27375 C30.5542,30.27375 30.2112,29.98075 30.1582,29.57875 C30.0172,28.51375 29.1002,27.71075 28.0242,27.71075 C26.9562,27.71075 26.0392,28.50775 25.8912,29.56375 C25.8302,30.00175 25.4162,30.31275 24.9892,30.24575 C24.5522,30.18475 24.2462,29.78075 24.3072,29.34275 C24.5642,27.50075 26.1622,26.11175 28.0242,26.11175 C29.9002,26.11175 31.5002,27.51175 31.7442,29.36975 C31.8022,29.80775 31.4932,30.20975 31.0552,30.26675 C31.0202,30.27175 30.9852,30.27375 30.9502,30.27375" id="Fill-3" fill="#D9D9D9" opacity="0.9"></path>
                <rect id="矩形" fill="#D9D9D9" x="23" y="22" width="2" height="3" rx="1"></rect>
                <rect id="矩形" fill="#D9D9D9" x="31" y="22" width="2" height="3" rx="1"></rect>
            </g>
        </g>
    </g>
</svg>