<?xml version="1.0" encoding="UTF-8"?>
<svg width="17px" height="16px" viewBox="0 0 17 16" version="1.1" xmlns="http://www.w3.org/2000/svg" xmlns:xlink="http://www.w3.org/1999/xlink">
    <title>page51_card_icon1</title>
    <g id="切图" stroke="none" stroke-width="1" fill="none" fill-rule="evenodd">
        <g id="Apple-TV" transform="translate(-208.000000, -1273.000000)" fill="#C5C5C5">
            <g id="编组-29" transform="translate(208.749704, 1273.000000)">
                <g id="编组-6" transform="translate(0.250296, 0.000000)">
                    <path d="M8,0 C12.418278,0 16,3.581722 16,8 C16,12.418278 12.418278,16 8,16 C3.581722,16 0,12.418278 0,8 C0,3.581722 3.581722,0 8,0 Z M8,1.14285714 C4.21290457,1.14285714 1.14285714,4.21290457 1.14285714,8 C1.14285714,11.7870954 4.21290457,14.8571429 8,14.8571429 C11.7870954,14.8571429 14.8571429,11.7870954 14.8571429,8 C14.8571429,4.21290457 11.7870954,1.14285714 8,1.14285714 Z" id="形状结合"></path>
                    <circle id="椭圆形" cx="5.42857143" cy="6.57142857" r="1"></circle>
                    <circle id="椭圆形" cx="10.5714286" cy="6.57142857" r="1"></circle>
                    <path d="M7.96843339,11.9605918 C6.87814767,11.9605918 5.93529053,11.1845918 5.72500481,10.1171632 C5.66443339,9.80630607 5.8667191,9.5068775 6.17643339,9.44630607 C6.48500481,9.37659178 6.78557624,9.5868775 6.84729053,9.89544892 C6.95129053,10.4303061 7.42329053,10.8177346 7.96843339,10.8177346 C8.51586196,10.8177346 8.98786196,10.4280204 9.0907191,9.89202035 C9.15014767,9.58116321 9.45414767,9.38116321 9.75929053,9.43830607 C10.0690048,9.49773464 10.2724334,9.79716321 10.2130048,10.1068775 C10.0072905,11.1811632 9.06329053,11.9605918 7.96843339,11.9605918" id="Fill-1" opacity="0.808343932"></path>
                </g>
            </g>
        </g>
    </g>
</svg>