<?xml version="1.0" encoding="UTF-8"?>
<svg width="24px" height="24px" viewBox="0 0 24 24" version="1.1" xmlns="http://www.w3.org/2000/svg" xmlns:xlink="http://www.w3.org/1999/xlink">
    <title>page54_preview_narrow</title>
    <g id="切图" stroke="none" stroke-width="1" fill="none" fill-rule="evenodd">
        <g id="Apple-TV" transform="translate(-426.000000, -1559.000000)" fill="#FFFFFF">
            <g id="缩小" transform="translate(426.000000, 1559.000000)">
                <path d="M11,2 C15.9705627,2 20,6.02943725 20,11 C20,13.4212329 19.0438932,15.6191551 17.4886351,17.2368111 L20.9532963,20.7012299 C21.2461895,20.9941231 21.2461895,21.4689968 20.9532963,21.76189 C20.6604031,22.0547832 20.1855293,22.0547832 19.8926361,21.76189 L16.3606829,18.2300247 C14.8632868,19.3420906 13.0084749,20 11,20 C6.02943725,20 2,15.9705627 2,11 C2,6.02943725 6.02943725,2 11,2 Z M11,3.5 C6.85786438,3.5 3.5,6.85786438 3.5,11 C3.5,15.1421356 6.85786438,18.5 11,18.5 C15.1421356,18.5 18.5,15.1421356 18.5,11 C18.5,6.85786438 15.1421356,3.5 11,3.5 Z M14.25,10.5 C14.6642136,10.5 15,10.8357864 15,11.25 C15,11.6642136 14.6642136,12 14.25,12 L7.75,12 C7.33578644,12 7,11.6642136 7,11.25 C7,10.8357864 7.33578644,10.5 7.75,10.5 L14.25,10.5 Z" id="形状结合"></path>
            </g>
        </g>
    </g>
</svg>