<?xml version="1.0" encoding="UTF-8"?>
<svg width="16px" height="16px" viewBox="0 0 16 16" version="1.1" xmlns="http://www.w3.org/2000/svg" xmlns:xlink="http://www.w3.org/1999/xlink">
    <title>page51_card_icon2</title>
    <defs>
        <rect id="path-1" x="0" y="0" width="16" height="16"></rect>
    </defs>
    <g id="切图" stroke="none" stroke-width="1" fill="none" fill-rule="evenodd">
        <g id="Apple-TV" transform="translate(-250.000000, -1273.000000)">
            <g id="Frame" transform="translate(250.000000, 1273.000000)">
                <mask id="mask-2" fill="white">
                    <use xlink:href="#path-1"></use>
                </mask>
                <g id="Frame-(Background/Mask)"></g>
                <path d="M6.67144545,2.36819196 L2.01073091,7.02533496 C1.98037376,7.05569211 1.96428571,7.09676343 1.96428571,7.13962058 C1.96428571,7.18247772 1.98037376,7.22354959 2.01073091,7.25390674 L2.66965941,7.91283525 C2.69977868,7.94282281 2.74055032,7.95965848 2.78305238,7.95965848 C2.82555444,7.95965848 2.86632581,7.94282281 2.89644509,7.91283525 L7.55715993,3.25569197 C8.13573144,2.67712047 8.90537413,2.35926338 9.72323133,2.35926338 C10.5410885,2.35926338 11.3107317,2.67712047 11.8875175,3.25569197 C12.466089,3.83426347 12.7839463,4.60390629 12.7839463,5.4199778 C12.7839463,6.237835 12.466089,7.0056924 11.8875175,7.5842639 L7.13751703,12.3324779 L6.36787427,13.1021215 C5.64823136,13.8217644 4.47858813,13.8217644 3.75894522,13.1021215 C3.4107309,12.7539072 3.21965951,12.2914071 3.21965951,11.79855 C3.21965951,11.3056928 3.4107309,10.8431927 3.75894522,10.4949784 L8.47144594,5.78426344 C8.59108881,5.66640629 8.74823104,5.60033507 8.91608819,5.60033507 L8.91787456,5.60033507 C9.08573171,5.60033507 9.241088,5.66640629 9.35894515,5.78426344 C9.47858802,5.9039063 9.54287461,6.06104907 9.54287461,6.22890622 C9.54287461,6.39497766 9.4768023,6.55212075 9.35894515,6.6699779 L5.50715969,10.5181925 C5.47680254,10.5485496 5.460731,10.5896215 5.460731,10.6324786 C5.460731,10.6753358 5.47680254,10.7164066 5.50715969,10.7467637 L6.16608821,11.4056928 C6.19620749,11.4356803 6.23697913,11.4525155 6.27948119,11.4525155 C6.32198325,11.4525155 6.36275488,11.4356803 6.39287416,11.4056928 L10.2428738,7.55569237 C10.598231,7.2003352 10.7928747,6.7289067 10.7928747,6.22712094 C10.7928747,5.72533518 10.5964452,5.25212041 10.2428738,4.89854897 C9.50894519,4.16462037 8.31608843,4.16640606 7.58215982,4.89854897 L7.12501681,5.3574778 L2.87144519,9.60926341 C2.58275014,9.8962645 2.35390691,10.2377262 2.19818678,10.6138455 C2.04246665,10.9899648 1.96296844,11.393257 1.96428571,11.8003352 C1.96428571,12.627121 2.28751655,13.4039068 2.87144519,13.9878354 C3.47680242,14.5914069 4.26965966,14.8931928 5.0625169,14.8931928 C5.85537414,14.8931928 6.64823118,14.5914069 7.25180265,13.9878354 L12.7732314,8.46997782 C13.5857315,7.65569207 14.0357372,6.57176361 14.0357372,5.4199778 C14.0375174,4.26640631 13.5875172,3.18247771 12.7732314,2.36819196 C11.0910884,0.686049019 8.35180272,0.686049019 6.67144545,2.36819196 Z" id="Vector" fill="#C5C5C5" fill-rule="nonzero" mask="url(#mask-2)"></path>
            </g>
        </g>
    </g>
</svg>