<?xml version="1.0" encoding="UTF-8"?>
<svg width="20px" height="20px" viewBox="0 0 20 20" version="1.1" xmlns="http://www.w3.org/2000/svg" xmlns:xlink="http://www.w3.org/1999/xlink">
    <title>page51_card_phone</title>
    <g id="切图" stroke="none" stroke-width="1" fill="none" fill-rule="evenodd">
        <g id="Apple-TV" transform="translate(-207.000000, -1310.000000)" fill="#999999">
            <g id="电话" transform="translate(207.000000, 1310.000000)">
                <path d="M5.08358591,12.613 C4.69058591,12.613 4.18458591,12.826 3.57658591,13.246 C2.98658591,13.653 2.43958591,14.163 2.08558591,14.519 C1.83258591,14.772 1.72458591,15.035 1.75458591,15.323 C1.82658591,16.008 2.70858591,16.655 3.36658591,17.082 C4.24058591,17.649 5.25158591,17.936 6.36958591,17.936 C8.79258591,17.936 11.5495859,16.569 13.9355859,14.184 C14.7715859,13.347 15.4935859,12.45 16.0835859,11.518 C16.6645859,10.595 17.0965859,9.659 17.3645859,8.738 C17.9255859,6.801 17.7405859,5.03 16.8265859,3.618 C16.3765859,2.924 15.6945859,2 14.9775859,2 C14.7275859,2 14.4895859,2.111 14.2705859,2.331 C13.8685859,2.73 13.3025859,3.343 12.8775859,3.999 C12.4375859,4.677 12.2765859,5.218 12.3985859,5.604 C12.4795859,5.863 12.9545859,6.341 13.4135859,6.804 C13.8045859,7.2 14.0865859,7.49 14.2355859,7.699 C14.5595859,8.158 14.4415859,8.812 13.8785859,9.701 C13.3875859,10.48 12.5935859,11.353 11.8805859,12.104 C11.2515859,12.703 10.5435859,13.355 9.86158591,13.851 C8.76858591,14.641 7.99758591,14.86 7.46258591,14.498 C7.23158591,14.332 6.92758591,14.036 6.55258591,13.664 C6.04158591,13.163 5.60058591,12.728 5.35758591,12.654 C5.26858591,12.626 5.17858591,12.613 5.08358591,12.613 M6.36958591,19.436 C4.95758591,19.436 3.67158591,19.068 2.54958591,18.34 C1.55758591,17.696 0.400585911,16.788 0.262585911,15.479 C0.186585911,14.744 0.456585911,14.027 1.02358591,13.46 C1.42058591,13.06 2.04058591,12.483 2.72458591,12.011 C3.89658591,11.201 4.89158591,10.942 5.79758591,11.22 C6.39158591,11.402 6.87458591,11.877 7.60558591,12.596 C7.75058591,12.74 7.98258591,12.969 8.15258591,13.125 C8.29458591,13.07 8.56158591,12.94 8.98058591,12.636 C9.59258591,12.192 10.2535859,11.582 10.8205859,11.044 C11.4555859,10.374 12.1885859,9.57 12.6105859,8.901 C12.7515859,8.678 12.8315859,8.512 12.8745859,8.405 C12.7255859,8.242 12.5045859,8.019 12.3545859,7.867 C11.5865859,7.092 11.1465859,6.63 10.9675859,6.053 C10.7005859,5.212 10.9135859,4.272 11.6185859,3.183 C12.1155859,2.416 12.7585859,1.719 13.2105859,1.269 C13.8465859,0.634 14.5215859,0.5 14.9775859,0.5 C16.4095859,0.5 17.3915859,1.731 18.0855859,2.803 C19.2425859,4.591 19.4915859,6.788 18.8045859,9.156 C18.4975859,10.212 18.0085859,11.276 17.3515859,12.319 C16.7025859,13.345 15.9105859,14.329 14.9955859,15.244 C12.3315859,17.908 9.18758591,19.436 6.36958591,19.436" id="Fill-1"></path>
            </g>
        </g>
    </g>
</svg>